<svg width="40" height="40" viewBox="0 0 40 40" fill="none" xmlns="http://www.w3.org/2000/svg">
<rect width="40" height="40" rx="20" fill="#FF2759"/>
<path d="M25.5529 25.0373C25.7301 25.3099 25.9413 25.5484 26.1867 25.7529C26.4456 25.9437 26.6501 26.1004 26.8 26.2231C26.9499 26.3321 27.0249 26.4548 27.0249 26.5911V26.6524C27.0249 26.8841 26.8681 27 26.5547 27H22.2818C21.9819 27 21.832 26.8841 21.832 26.6524V26.5911C21.832 26.4684 21.907 26.3321 22.0569 26.1822C22.2204 26.0187 22.3295 25.8756 22.384 25.7529C22.4521 25.6166 22.4181 25.3781 22.2818 25.0373L20.1351 21.48L17.8862 21.5209V25.0373C17.8862 25.3508 18.0293 25.6575 18.3156 25.9573C18.6154 26.2436 18.7653 26.4548 18.7653 26.5911V26.6524C18.7653 26.8841 18.6018 27 18.2747 27H14.4311C14.1313 27 13.9813 26.8841 13.9813 26.6524V26.5911C13.9813 26.4548 14.1108 26.2436 14.3698 25.9573C14.6287 25.6575 14.7582 25.3508 14.7582 25.0373V14.4471C14.7582 14.1336 14.6287 13.8338 14.3698 13.5476C14.1108 13.2477 13.9813 13.0296 13.9813 12.8933V12.8116C13.9813 12.5935 14.1313 12.4844 14.4311 12.4844H19.4809C21.3754 12.4844 22.8747 12.8729 23.9787 13.6498C25.0963 14.4267 25.6619 15.5647 25.6756 17.064C25.6756 17.8954 25.4302 18.6655 24.9396 19.3742C24.4625 20.0693 23.7742 20.6077 22.8747 20.9893L25.5529 25.0373ZM19.0311 20.2738H19.9102C20.6871 20.2738 21.3073 20.0353 21.7707 19.5582C22.2477 19.0676 22.4862 18.352 22.4862 17.4116C22.4862 16.2939 22.1591 15.4012 21.5049 14.7333C20.8643 14.0655 20.1215 13.7316 19.2764 13.7316H18.5813C18.1179 13.7316 17.8862 14.0382 17.8862 14.6516V18.904C17.8862 19.3947 17.9748 19.749 18.152 19.9671C18.3428 20.1716 18.6359 20.2738 19.0311 20.2738Z" fill="white"/>
</svg>
