<svg width="185" height="134" viewBox="0 0 185 134" fill="none" xmlns="http://www.w3.org/2000/svg">
<path d="M-6.77548 126.961C-12.1536 115.387 -16.0314 98.4405 -2.72825 90.3336C7.26923 84.2412 24.7557 78.2778 34.1028 88.2446C40.314 94.8676 43.9748 104.544 41.0704 113.279C39.5359 117.894 36.1058 121.926 32.6093 116.397C21.0214 98.0714 22.8676 75.7921 32.8291 57.0156C39.3951 44.6394 53.9797 33.4439 67.5952 44.0452C75.9872 50.5795 80.9218 62.0884 84.1752 71.8831C86.5659 79.0803 89.3579 87.2104 86.7585 94.7018C85.0495 99.6268 82.7829 102.378 77.5916 99.0671C69.7179 94.0448 68.1661 83.4782 66.5845 75.054C63.9678 61.1153 65.5742 52.3949 75.815 42.3925C99.4329 19.3245 141.986 21.3243 171.549 28.2407" stroke="white" stroke-width="3" stroke-linecap="round"/>
</svg>
