<svg width="220" height="78" viewBox="0 0 220 78" fill="none" xmlns="http://www.w3.org/2000/svg">
<path d="M1.99998 68.0435C0.801806 54.4142 3.07637 35.9169 19.4444 32.599C31.7452 30.1056 51.5479 30.4749 57.3333 43.9323C61.1778 52.8749 61.3373 63.9643 55.2222 71.7101C51.9913 75.8026 47.0625 78.6154 45.5555 71.7657C40.5613 49.0648 50.5517 27.2803 67.4444 11.9879C78.579 1.90819 97.3657 -4.05546 107.222 11.599C113.297 21.2479 114.072 34.6497 113.778 45.7101C113.561 53.8375 113.409 63.0516 108.056 69.6546C104.536 73.9956 101.247 75.9423 97.2222 70.7101C91.1179 62.7745 93.4092 51.5568 94.8889 42.4879C97.3371 27.4826 102.138 19.2783 116.111 12.9323C148.336 -1.70303 190.501 15.8399 217.778 33.599" stroke="white" stroke-width="3" stroke-linecap="round"/>
</svg>
