<svg width="211" height="189" viewBox="0 0 211 189" fill="none" xmlns="http://www.w3.org/2000/svg">
<path d="M-78 181.351C-74.8794 161.414 -71.4133 149.51 -56.5092 135.634C-42.3768 122.476 -30.2568 114.866 -10.8901 117.464C11.1145 120.416 27.6014 134.307 26.2304 157.613C25.789 165.117 23.6884 186.626 12.5545 186.626C3.96556 186.626 -0.383057 173.761 -2.78217 167.284C-9.11905 150.174 -17.4583 122.217 -6.10347 105.351C4.01411 90.3237 28.5664 89.1063 43.9115 95.7781C68.3548 106.406 80.5321 132.802 79.8598 158.688C79.7492 162.944 80.8913 184.483 72.631 178.029C50.7064 160.901 42.891 132.156 44.5953 105.644C46.4102 77.4126 56.3101 44.7566 89.1399 44.0048C108.173 43.5689 125.95 47.9549 140.62 60.6113C156.294 74.1339 156.918 90.9347 156.347 110.431C155.923 124.957 154.793 139.53 151.952 153.803C150.76 159.789 149.446 171.047 144.528 175.685C136.482 183.271 133.792 142.222 133.782 139.541C133.706 119.018 134.663 98.4301 144.137 79.7577C159.526 49.4272 183.14 23.6806 209 2" stroke="white" stroke-width="3" stroke-linecap="round"/>
</svg>
