<svg width="55" height="55" viewBox="0 0 55 55" fill="none" xmlns="http://www.w3.org/2000/svg">
<rect width="55" height="55" rx="27.5" fill="black"/>
<path d="M35.1352 33.5513C35.3789 33.9261 35.6693 34.2541 36.0067 34.5352C36.3627 34.7976 36.6439 35.0131 36.85 35.1818C37.0561 35.3317 37.1592 35.5004 37.1592 35.6878V35.7721C37.1592 36.0907 36.9437 36.25 36.5127 36.25H30.6374C30.2251 36.25 30.019 36.0907 30.019 35.7721V35.6878C30.019 35.5191 30.1221 35.3317 30.3282 35.1256C30.5531 34.9007 30.703 34.7039 30.778 34.5352C30.8717 34.3478 30.8249 34.0199 30.6374 33.5513L27.6858 28.66L24.5936 28.7162V33.5513C24.5936 33.9824 24.7903 34.404 25.1839 34.8163C25.5962 35.2099 25.8023 35.5004 25.8023 35.6878V35.7721C25.8023 36.0907 25.5774 36.25 25.1277 36.25H19.8428C19.4305 36.25 19.2243 36.0907 19.2243 35.7721V35.6878C19.2243 35.5004 19.4024 35.2099 19.7584 34.8163C20.1145 34.404 20.2926 33.9824 20.2926 33.5513V18.9898C20.2926 18.5587 20.1145 18.1464 19.7584 17.7529C19.4024 17.3406 19.2243 17.0407 19.2243 16.8533V16.7409C19.2243 16.441 19.4305 16.2911 19.8428 16.2911H26.7862C29.3912 16.2911 31.4527 16.8252 32.9707 17.8934C34.5074 18.9617 35.2851 20.5265 35.3039 22.588C35.3039 23.7312 34.9666 24.79 34.2919 25.7646C33.636 26.7203 32.6896 27.4606 31.4527 27.9853L35.1352 33.5513ZM26.1678 27.0014H27.3766C28.4448 27.0014 29.2975 26.6735 29.9347 26.0176C30.5906 25.3429 30.9186 24.359 30.9186 23.0659C30.9186 21.5291 30.4688 20.3016 29.5692 19.3833C28.6884 18.465 27.667 18.0059 26.5051 18.0059H25.5493C24.9121 18.0059 24.5936 18.4276 24.5936 19.2709V25.118C24.5936 25.7927 24.7154 26.2799 24.959 26.5798C25.2214 26.8609 25.6243 27.0014 26.1678 27.0014Z" fill="white"/>
</svg>
