<svg width="140" height="40" viewBox="0 0 140 40" fill="none" xmlns="http://www.w3.org/2000/svg">
<g clip-path="url(#clip0_15_4)">
<rect width="40" height="40" rx="20" fill="#4C4C4C"/>
<path d="M25.5529 25.0373C25.7301 25.3099 25.9413 25.5484 26.1867 25.7529C26.4456 25.9437 26.6501 26.1004 26.8 26.2231C26.9499 26.3321 27.0249 26.4548 27.0249 26.5911V26.6524C27.0249 26.8841 26.8681 27 26.5547 27H22.2818C21.9819 27 21.832 26.8841 21.832 26.6524V26.5911C21.832 26.4684 21.907 26.3321 22.0569 26.1822C22.2204 26.0187 22.3295 25.8756 22.384 25.7529C22.4521 25.6166 22.4181 25.3781 22.2818 25.0373L20.1351 21.48L17.8862 21.5209V25.0373C17.8862 25.3508 18.0293 25.6575 18.3156 25.9573C18.6154 26.2436 18.7653 26.4548 18.7653 26.5911V26.6524C18.7653 26.8841 18.6018 27 18.2747 27H14.4311C14.1313 27 13.9813 26.8841 13.9813 26.6524V26.5911C13.9813 26.4548 14.1108 26.2436 14.3698 25.9573C14.6287 25.6575 14.7582 25.3508 14.7582 25.0373V14.4471C14.7582 14.1336 14.6287 13.8338 14.3698 13.5476C14.1108 13.2477 13.9813 13.0296 13.9813 12.8933V12.8116C13.9813 12.5935 14.1313 12.4844 14.4311 12.4844H19.4809C21.3754 12.4844 22.8747 12.8729 23.9787 13.6498C25.0963 14.4267 25.6619 15.5647 25.6756 17.064C25.6756 17.8954 25.4302 18.6655 24.9396 19.3742C24.4625 20.0693 23.7742 20.6077 22.8747 20.9893L25.5529 25.0373ZM19.0311 20.2738H19.9102C20.6871 20.2738 21.3073 20.0353 21.7707 19.5582C22.2477 19.0676 22.4862 18.352 22.4862 17.4116C22.4862 16.2939 22.1591 15.4012 21.5049 14.7333C20.8643 14.0655 20.1215 13.7316 19.2764 13.7316H18.5813C18.1179 13.7316 17.8862 14.0382 17.8862 14.6516V18.904C17.8862 19.3947 17.9748 19.749 18.152 19.9671C18.3428 20.1716 18.6359 20.2738 19.0311 20.2738Z" fill="white"/>
<path d="M61.0077 32.3281C58.0769 32.3281 55.485 31.0814 53.2322 28.588C51.0013 26.0727 49.8858 23.2403 49.8858 20.0907C49.8858 16.6787 50.9029 13.8791 52.937 11.6919C54.971 9.5047 57.5847 8.41111 60.778 8.41111C63.2496 8.41111 65.393 9.0782 67.2084 10.4124C69.0238 11.7247 69.9315 13.1026 69.9315 14.5462C69.9315 15.093 69.7674 15.5304 69.4393 15.8585C69.1113 16.1866 68.6519 16.3506 68.0614 16.3506C67.5146 16.3506 67.0225 16.1428 66.585 15.7273C66.1476 15.2898 65.743 14.7649 65.3712 14.1525C65.0212 13.5401 64.6275 12.9277 64.1901 12.3152C63.7745 11.681 63.1949 11.156 62.4512 10.7405C61.7295 10.303 60.8765 10.0843 59.8922 10.0843C58.2081 10.0843 56.7645 10.8061 55.5616 12.2496C54.3805 13.6713 53.79 15.5195 53.79 17.7942C53.79 20.9656 54.6211 23.6012 56.2834 25.7009C57.9456 27.7787 59.8594 28.8176 62.0247 28.8176C63.6433 28.8176 65.0321 28.3364 66.1914 27.3741C67.3506 26.4117 68.2364 25.2962 68.8488 24.0277C69.0019 23.809 69.1987 23.6777 69.4393 23.634C69.6799 23.5684 69.8877 23.623 70.0627 23.798C70.2377 23.9511 70.3033 24.1808 70.2595 24.487C69.9533 26.6961 68.991 28.5552 67.3724 30.0643C65.7758 31.5735 63.6542 32.3281 61.0077 32.3281ZM88.2662 29.2113C88.31 29.6925 88.5177 30.1299 88.8896 30.5236C89.2614 30.8955 89.4473 31.1907 89.4473 31.4095V31.5407C89.4473 31.8469 89.2176 32 88.7583 32H83.9356C83.4763 32 83.2466 31.8469 83.2466 31.5407V31.4095C83.2466 31.2126 83.4434 30.9283 83.8371 30.5565C84.2527 30.1628 84.4496 29.7253 84.4277 29.2441L84.0996 22.7482C83.9465 19.2487 82.7982 17.4989 80.6548 17.4989C79.6268 17.4989 78.7957 17.8817 78.1614 18.6472C77.5271 19.3908 77.2099 20.3641 77.2099 21.5671V29.2769C77.2099 29.7363 77.4287 30.1628 77.8661 30.5565C78.3254 30.9283 78.5551 31.2126 78.5551 31.4095V31.5079C78.5551 31.836 78.3145 32 77.8333 32H72.7481C72.2888 32 72.0591 31.836 72.0591 31.5079V31.4095C72.0591 31.2126 72.1685 31.0267 72.3872 30.8517C72.6059 30.6549 72.8246 30.4362 73.0433 30.1956C73.2621 29.955 73.3714 29.6488 73.3714 29.2769V11.8559C73.3714 11.4622 73.2511 11.1342 73.0105 10.8717C72.7918 10.6092 72.5622 10.4015 72.3216 10.2483C72.1028 10.0734 71.9935 9.8984 71.9935 9.72342V9.625C71.9935 9.34066 72.1794 9.11101 72.5512 8.93603L76.0617 7.39406C76.7616 7.08785 77.1115 7.26283 77.1115 7.91899L77.0787 18.1223C78.1286 16.6568 79.6596 15.9241 81.6718 15.9241C83.356 15.9241 84.7776 16.4928 85.9368 17.6301C87.0961 18.7675 87.7413 20.5063 87.8725 22.8466L88.2662 29.2113ZM105.394 29.0473C105.437 29.5285 105.558 29.9112 105.755 30.1956C105.973 30.458 106.181 30.6221 106.378 30.6877C106.597 30.7533 106.783 30.8408 106.936 30.9501C107.111 31.0595 107.198 31.2017 107.198 31.3766C107.198 31.9234 106.312 32.1968 104.541 32.1968C103.666 32.1968 103.021 32.0656 102.605 31.8032C102.211 31.5188 101.982 30.9939 101.916 30.2284C101.041 31.6282 99.5211 32.3281 97.3558 32.3281C95.5186 32.3281 94.0313 31.9016 92.8939 31.0486C91.7784 30.1737 91.2207 28.9489 91.2207 27.3741C91.1988 25.8212 91.7566 24.6182 92.8939 23.7652C94.0313 22.8903 95.4639 22.4529 97.1918 22.4529C98.7665 22.4529 100.035 22.8247 100.997 23.5684L100.932 22.9122C100.735 20.9 100.385 19.4346 99.882 18.5159C99.379 17.5973 98.5806 17.138 97.487 17.138C96.809 17.138 96.2403 17.3458 95.781 17.7614C95.3436 18.1769 95.0374 18.6362 94.8624 19.1393C94.7093 19.6205 94.4796 20.0689 94.1734 20.4844C93.8672 20.9 93.4845 21.1078 93.0252 21.1078C92.544 21.1078 92.1503 20.9765 91.8441 20.7141C91.5597 20.4297 91.4176 20.0579 91.4176 19.5986C91.4176 18.5488 91.9862 17.6739 93.1236 16.974C94.2828 16.2741 95.7373 15.9241 97.487 15.9241C99.543 15.9241 101.205 16.5365 102.474 17.7614C103.742 18.9643 104.497 20.6266 104.738 22.7482L105.394 29.0473ZM98.4385 31.0814C99.3352 31.0814 100.057 30.7533 100.604 30.0971C101.172 29.441 101.435 28.6645 101.391 27.7678L101.293 26.7507C101.227 25.8102 100.91 25.0666 100.341 24.5198C99.7726 23.973 99.0509 23.6996 98.176 23.6996C97.2574 23.6996 96.5137 23.9949 95.9451 24.5854C95.3764 25.1541 95.092 25.9305 95.092 26.9148C95.092 28.074 95.3983 29.0582 96.0107 29.8675C96.645 30.6767 97.4542 31.0814 98.4385 31.0814ZM117.45 15.9241C118.391 15.9241 119.123 16.1866 119.648 16.7115C120.195 17.2364 120.468 17.8926 120.468 18.68C120.468 20.0579 119.9 20.7469 118.762 20.7469C118.281 20.7469 117.909 20.6157 117.647 20.3532C117.385 20.0907 117.22 19.7955 117.155 19.4674C117.089 19.1393 116.936 18.844 116.696 18.5816C116.455 18.3191 116.127 18.1879 115.711 18.1879C114.99 18.1879 114.432 18.5816 114.038 19.369C113.644 20.1563 113.448 21.1187 113.448 22.256V29.2769C113.448 29.7581 113.699 30.1846 114.202 30.5565C114.705 30.9283 114.957 31.2126 114.957 31.4095V31.5407C114.957 31.8469 114.727 32 114.268 32H109.183C108.723 32 108.494 31.8469 108.494 31.5407V31.4095C108.494 31.2126 108.701 30.9283 109.117 30.5565C109.532 30.1846 109.74 29.7581 109.74 29.2769V20.4516C109.74 19.9486 109.5 19.5221 109.018 19.1721C108.559 18.8003 108.33 18.5159 108.33 18.3191V18.2207C108.33 17.9801 108.526 17.7504 108.92 17.5317L112.135 16.0554C112.77 15.7491 113.087 15.9351 113.087 16.6131V19.1721C113.83 17.0068 115.285 15.9241 117.45 15.9241ZM136.954 29.2769C136.954 29.7581 137.162 30.1956 137.577 30.5893C137.993 30.983 138.201 31.2673 138.201 31.4423V31.5407C138.201 31.8469 138.015 32 137.643 32H134.231C133.837 32 133.618 31.7922 133.575 31.3766L133.476 30.2284C132.383 31.6282 130.852 32.3281 128.883 32.3281C126.783 32.3281 124.979 31.5735 123.47 30.0643C121.983 28.5552 121.239 26.5648 121.239 24.0933C121.239 21.7092 121.972 19.7517 123.437 18.2207C124.924 16.6896 126.762 15.9241 128.949 15.9241C130.655 15.9241 132.087 16.4819 133.247 17.5973V11.4294C133.247 11.0139 133.115 10.6749 132.853 10.4124C132.612 10.1499 132.361 9.94214 132.098 9.78904C131.858 9.61406 131.737 9.42815 131.737 9.2313V9.16569C131.737 8.88135 131.934 8.66263 132.328 8.50953L135.806 7.39406C136.571 7.1316 136.954 7.32844 136.954 7.9846V29.2769ZM129.769 31.0814C130.666 31.0814 131.464 30.7096 132.164 29.9659C132.886 29.2223 133.247 28.1833 133.247 26.8492V21.5999C133.247 20.5063 132.831 19.5002 132 18.5816C131.169 17.6411 130.195 17.1708 129.08 17.1708C127.855 17.1708 126.871 17.6739 126.127 18.68C125.384 19.6642 125.001 21.0203 124.979 22.7482C124.935 25.0447 125.351 27.0023 126.226 28.6208C127.122 30.2393 128.304 31.0595 129.769 31.0814Z" fill="white"/>
</g>
<defs>
<clipPath id="clip0_15_4">
<rect width="140" height="40" fill="white"/>
</clipPath>
</defs>
</svg>
