<svg width="21" height="21" viewBox="0 0 21 21" fill="none" xmlns="http://www.w3.org/2000/svg">
<path fill-rule="evenodd" clip-rule="evenodd" d="M10.5042 1C7.65336 1 5.32208 3.33401 5.32209 6.18822C5.32211 9.04243 7.65338 11.3764 10.5042 11.3764C13.3551 11.3764 15.6779 9.04243 15.6779 6.18822C15.6779 3.33401 13.3551 1 10.5042 1ZM10.5042 2.72884C12.4218 2.72884 13.9511 4.26837 13.9511 6.18822C13.9511 8.1081 12.4218 9.6459 10.5042 9.6459C8.58661 9.6459 7.04891 8.1081 7.0489 6.18822C7.0489 4.26837 8.5866 2.72884 10.5042 2.72884ZM10.4352 13.1053C10.4591 13.1053 10.4821 13.1053 10.5042 13.1053C10.5266 13.1053 10.5499 13.1053 10.5742 13.1053C11.484 13.1047 13.6674 13.1034 15.7369 13.7941C16.7993 14.1486 17.8513 14.693 18.661 15.5685C19.4708 16.4441 20 17.6658 20 19.1545C19.9896 19.6245 19.6061 20 19.1366 20C18.6671 20 18.2836 19.6245 18.2732 19.1545C18.2732 18.05 17.9323 17.3251 17.3929 16.7419C16.8536 16.1587 16.0743 15.7272 15.1939 15.4335C13.4333 14.8467 11.3676 14.8341 10.5042 14.8341C9.6408 14.8341 7.57346 14.8459 5.81282 15.4335C4.9325 15.7273 4.14645 16.1587 3.60708 16.7419C3.06772 17.3251 2.72681 18.05 2.72681 19.1545C2.7164 19.6245 2.33291 20 1.86341 20C1.39391 20 1.01041 19.6245 1 19.1545C0.999996 17.6658 1.52925 16.4441 2.33895 15.5685C3.14866 14.693 4.20241 14.1486 5.26476 13.7941C7.33506 13.1035 9.52563 13.1047 10.4352 13.1053Z" fill="white"/>
<path d="M5.32209 6.18822L5.07209 6.18822V6.18822L5.32209 6.18822ZM15.6779 6.18822L15.9279 6.18822V6.18822L15.6779 6.18822ZM13.9511 6.18822L14.2011 6.18822V6.18822L13.9511 6.18822ZM7.0489 6.18822L6.7989 6.18822V6.18822L7.0489 6.18822ZM10.4352 13.1053L10.4351 13.3553H10.4351L10.4352 13.1053ZM10.5742 13.1053L10.574 12.8553H10.574L10.5742 13.1053ZM15.7369 13.7941L15.6578 14.0313L15.6578 14.0313L15.7369 13.7941ZM18.661 15.5685L18.8446 15.3988L18.661 15.5685ZM20 19.1545L20.25 19.1601V19.1545H20ZM18.2732 19.1545H18.0231L18.0232 19.1601L18.2732 19.1545ZM17.3929 16.7419L17.5765 16.5722H17.5765L17.3929 16.7419ZM15.1939 15.4335L15.2731 15.1963L15.273 15.1963L15.1939 15.4335ZM5.81282 15.4335L5.73368 15.1963L5.81282 15.4335ZM3.60708 16.7419L3.42355 16.5722L3.42354 16.5722L3.60708 16.7419ZM2.72681 19.1545L2.97681 19.1601V19.1545H2.72681ZM1 19.1545H0.749939L0.750061 19.1601L1 19.1545ZM2.33895 15.5685L2.15541 15.3988H2.15541L2.33895 15.5685ZM5.26476 13.7941L5.18565 13.557L5.18562 13.557L5.26476 13.7941ZM5.57209 6.18822C5.57208 3.4718 7.79171 1.25 10.5042 1.25V0.75C7.51501 0.75 5.07208 3.19621 5.07209 6.18822L5.57209 6.18822ZM10.5042 11.1264C7.79172 11.1264 5.5721 8.90463 5.57209 6.18822L5.07209 6.18822C5.07211 9.18022 7.51503 11.6264 10.5042 11.6264V11.1264ZM15.4279 6.18822C15.4279 8.90516 13.2162 11.1264 10.5042 11.1264V11.6264C13.4939 11.6264 15.9279 9.17969 15.9279 6.18822L15.4279 6.18822ZM10.5042 1.25C13.2162 1.25 15.4279 3.47127 15.4279 6.18822L15.9279 6.18822C15.9279 3.19674 13.4939 0.75 10.5042 0.75V1.25ZM14.2011 6.18822C14.2011 4.13137 12.561 2.47884 10.5042 2.47884V2.97884C12.2827 2.97884 13.7011 4.40536 13.7011 6.18822L14.2011 6.18822ZM10.5042 9.8959C12.5608 9.8959 14.2011 8.24525 14.2011 6.18822L13.7011 6.18822C13.7011 7.97094 12.2828 9.3959 10.5042 9.3959V9.8959ZM6.7989 6.18822C6.79891 8.24605 8.44842 9.8959 10.5042 9.8959V9.3959C8.7248 9.3959 7.29891 7.97015 7.2989 6.18822L6.7989 6.18822ZM10.5042 2.47884C8.44825 2.47884 6.7989 4.13057 6.7989 6.18822L7.2989 6.18822C7.2989 4.40616 8.72495 2.97884 10.5042 2.97884V2.47884ZM10.5042 12.8553C10.4822 12.8553 10.4593 12.8553 10.4353 12.8553L10.4351 13.3553C10.4589 13.3553 10.482 13.3553 10.5042 13.3553V12.8553ZM10.574 12.8553C10.5498 12.8553 10.5265 12.8553 10.5042 12.8553V13.3553C10.5267 13.3553 10.5501 13.3553 10.5743 13.3553L10.574 12.8553ZM15.8161 13.557C13.7038 12.8521 11.4833 12.8547 10.574 12.8553L10.5743 13.3553C11.4847 13.3547 13.6309 13.3548 15.6578 14.0313L15.8161 13.557ZM18.8446 15.3988C17.9967 14.482 16.9022 13.9194 15.8161 13.557L15.6578 14.0313C16.6963 14.3778 17.706 14.9041 18.4775 15.7383L18.8446 15.3988ZM20.25 19.1545C20.25 17.6038 19.6976 16.3212 18.8446 15.3988L18.4775 15.7383C19.2439 16.5669 19.75 17.7278 19.75 19.1545H20.25ZM19.1366 20.25C19.7423 20.25 20.2365 19.7656 20.2499 19.1601L19.7501 19.149C19.7427 19.4833 19.4699 19.75 19.1366 19.75V20.25ZM18.0232 19.1601C18.0367 19.7656 18.5309 20.25 19.1366 20.25V19.75C18.8033 19.75 18.5305 19.4833 18.5231 19.149L18.0232 19.1601ZM17.2094 16.9117C17.7055 17.4482 18.0232 18.1122 18.0232 19.1545H18.5232C18.5232 17.9878 18.159 17.2021 17.5765 16.5722L17.2094 16.9117ZM15.1148 15.6706C15.971 15.9563 16.7081 16.3696 17.2094 16.9117L17.5765 16.5722C16.999 15.9478 16.1775 15.4981 15.2731 15.1963L15.1148 15.6706ZM10.5042 15.0841C11.3697 15.0841 13.3974 15.0983 15.1149 15.6707L15.273 15.1963C13.4692 14.5952 11.3655 14.5841 10.5042 14.5841V15.0841ZM5.89195 15.6706C7.60935 15.0975 9.63857 15.0841 10.5042 15.0841V14.5841C9.64303 14.5841 7.53757 14.5943 5.73368 15.1963L5.89195 15.6706ZM3.79062 16.9117C4.29154 16.3701 5.03501 15.9566 5.89195 15.6706L5.73368 15.1963C4.82998 15.4979 4.00136 15.9474 3.42355 16.5722L3.79062 16.9117ZM2.97681 19.1545C2.97681 18.1122 3.29447 17.4482 3.79062 16.9117L3.42354 16.5722C2.84097 17.2021 2.47681 17.9878 2.47681 19.1545H2.97681ZM1.86341 20.25C2.46909 20.25 2.96334 19.7656 2.97675 19.1601L2.47687 19.149C2.46947 19.4833 2.19673 19.75 1.86341 19.75V20.25ZM0.750061 19.1601C0.763477 19.7656 1.25772 20.25 1.86341 20.25V19.75C1.53009 19.75 1.25735 19.4833 1.24994 19.149L0.750061 19.1601ZM2.15541 15.3988C1.30236 16.3212 0.749996 17.6038 0.75 19.1545H1.25C1.25 17.7278 1.75614 16.5669 2.52249 15.7383L2.15541 15.3988ZM5.18562 13.557C4.09958 13.9194 3.00341 14.4819 2.15541 15.3988L2.52249 15.7383C3.29391 14.9042 4.30524 14.3779 5.34389 14.0313L5.18562 13.557ZM10.4353 12.8553C9.52637 12.8547 7.29863 12.8521 5.18565 13.557L5.34387 14.0313C7.37148 13.3549 9.52489 13.3547 10.4351 13.3553L10.4353 12.8553Z" fill="white"/>
</svg>
